<?xml version="1.0" encoding="UTF-8"?>
<svg xmlns="http://www.w3.org/2000/svg" viewBox="0 0 621.71 695.24">
  <defs>
    <style>
      .cls-1 {
        fill: none;
      }

      .cls-1, .cls-2, .cls-3, .cls-4, .cls-5 {
        stroke: #231f20;
        stroke-miterlimit: 10;
      }

      .cls-2 {
        fill: #d90aff;
        opacity: .75;
      }

      .cls-3 {
        fill: #fbb4ff;
        opacity: .85;
      }

      .cls-4 {
        fill: #aa0094;
      }

      .cls-5 {
        fill: #ea00f4;
      }
    </style>
  </defs>
  <g id="Layer_4" data-name="Layer 4">
    <path class="cls-2" d="m337.8,253.33c-17.88,1.91-32.52,3.48-41.46,15.85-9.01,12.46-9.46,32.01,0,43.9,6.95,8.74,16.95,10.46,34.15,13.41,12.19,2.1,23.74,1.43,46.34,0,24.63-1.55,27.35-3.21,29.27-4.88,12.16-10.6,10.97-38.79-2.44-54.88-15.66-18.79-43.58-15.8-65.85-13.41Z"/>
    <path class="cls-2" d="m322.08,314.44c-17.88,1.91-32.52,3.48-41.46,15.85-9.01,12.46-9.46,32.01,0,43.9,6.95,8.74,16.95,10.46,34.15,13.41,12.19,2.1,23.74,1.43,46.34,0,24.63-1.55,27.35-3.21,29.27-4.88,12.16-10.6,10.97-38.79-2.44-54.88-15.66-18.79-43.58-15.8-65.85-13.41Z"/>
    <path class="cls-2" d="m343.16,374.53c-17.88,1.91-32.52,3.48-41.46,15.85-9.01,12.46-9.46,32.01,0,43.9,6.95,8.74,16.95,10.46,34.15,13.41,12.19,2.1,23.74,1.43,46.34,0,24.63-1.55,27.35-3.21,29.27-4.88,12.16-10.6,10.97-38.79-2.44-54.88-15.66-18.79-43.58-15.8-65.85-13.41Z"/>
    <path class="cls-2" d="m323.38,429.22c-17.88,1.91-32.52,3.48-41.46,15.85-9.01,12.46-9.46,32.01,0,43.9,6.95,8.74,16.95,10.46,34.15,13.41,12.19,2.1,23.74,1.43,46.34,0,24.63-1.55,27.35-3.21,29.27-4.88,12.16-10.6,10.97-38.79-2.44-54.88-15.66-18.79-43.58-15.8-65.85-13.41Z"/>
    <path class="cls-2" d="m323.38,495.73c-17.88,1.91-32.52,3.48-41.46,15.85-9.01,12.46-9.46,32.01,0,43.9,6.95,8.74,16.95,10.46,34.15,13.41,12.19,2.1,23.74,1.43,46.34,0,24.63-1.55,27.35-3.21,29.27-4.88,12.16-10.6,10.97-38.79-2.44-54.88-15.66-18.79-43.58-15.8-65.85-13.41Z"/>
    <path class="cls-2" d="m343.16,548.59c-17.88,1.91-32.52,3.48-41.46,15.85-9.01,12.46-9.46,32.01,0,43.9,6.95,8.74,16.95,10.46,34.15,13.41,12.19,2.1,23.74,1.43,46.34,0,24.63-1.55,27.35-3.21,29.27-4.88,12.16-10.6,10.97-38.79-2.44-54.88-15.66-18.79-43.58-15.8-65.85-13.41Z"/>
  </g>
  <g id="Layer_5" data-name="Layer 5">
    <path class="cls-5" d="m275.97,613.89c-4.95,6.29.27,23.6,9.76,26.83,12.43,4.23,23.77-18.58,39.02-14.63,10.1,2.62,10.41,13.99,19.51,14.63,10.96.77,14.82-15.42,26.83-15.85,12.94-.47,20.05,17.91,24.39,15.85,4.91-2.33,5.33-30.32-12.2-39.02-9.92-4.92-16.05,8.66-35.37,8.54-16.56-.11-18.46-9.48-34.15-7.32-8.95,1.23-10.02,4.52-25.61,7.32-7.36,1.32-10.22,1.15-12.2,3.66Z"/>
    <path class="cls-5" d="m291.69,589.32c-4.95,6.29.27,23.6,9.76,26.83,12.43,4.23,23.77-18.58,39.02-14.63,10.1,2.62,10.41,13.99,19.51,14.63,10.96.77,14.82-15.42,26.83-15.85,12.94-.47,20.05,17.91,24.39,15.85,4.91-2.33,5.33-30.32-12.2-39.02-9.92-4.92-16.05,8.66-35.37,8.54-16.56-.11-18.46-9.48-34.15-7.32-8.95,1.23-10.02,4.52-25.61,7.32-7.36,1.32-10.22,1.15-12.2,3.66Z"/>
    <path class="cls-5" d="m308.03,575.11c-4.95,6.29.27,23.6,9.76,26.83,12.43,4.23,23.77-18.58,39.02-14.63,10.1,2.62,10.41,13.99,19.51,14.63,10.96.77,14.82-15.42,26.83-15.85,12.94-.47,20.05,17.91,24.39,15.85,4.91-2.33,5.33-30.32-12.2-39.02-9.92-4.92-16.05,8.66-35.37,8.54-16.56-.11-18.46-9.48-34.15-7.32-8.95,1.23-10.02,4.52-25.61,7.32-7.36,1.32-10.22,1.15-12.2,3.66Z"/>
    <path class="cls-5" d="m318.58,548.7c-4.95,6.29.27,23.6,9.76,26.83,12.43,4.23,23.77-18.58,39.02-14.63,10.1,2.62,10.41,13.99,19.51,14.63,10.96.77,14.82-15.42,26.83-15.85,12.94-.47,20.05,17.91,24.39,15.85,4.91-2.33,5.33-30.32-12.2-39.02-9.92-4.92-16.05,8.66-35.37,8.54-16.56-.11-18.46-9.48-34.15-7.32-8.95,1.23-10.02,4.52-25.61,7.32-7.36,1.32-10.22,1.15-12.2,3.66Z"/>
    <path class="cls-5" d="m285.34,525.06c-4.95,6.29.27,23.6,9.76,26.83,12.43,4.23,23.77-18.58,39.02-14.63,10.1,2.62,10.41,13.99,19.51,14.63,10.96.77,14.82-15.42,26.83-15.85,12.94-.47,20.05,17.91,24.39,15.85,4.91-2.33,5.33-30.32-12.2-39.02-9.92-4.92-16.05,8.66-35.37,8.54-16.56-.11-18.46-9.48-34.15-7.32-8.95,1.23-10.02,4.52-25.61,7.32-7.36,1.32-10.22,1.15-12.2,3.66Z"/>
    <path class="cls-5" d="m266.29,509.92c-4.95,6.29.27,23.6,9.76,26.83,12.43,4.23,23.77-18.58,39.02-14.63,10.1,2.62,10.41,13.99,19.51,14.63,10.96.77,14.82-15.42,26.83-15.85,12.94-.47,20.05,17.91,24.39,15.85,4.91-2.33,5.33-30.32-12.2-39.02-9.92-4.92-16.05,8.66-35.37,8.54-16.56-.11-18.46-9.48-34.15-7.32-8.95,1.23-10.02,4.52-25.61,7.32-7.36,1.32-10.22,1.15-12.2,3.66Z"/>
    <path class="cls-5" d="m256.41,488.58c-4.95,6.29.27,23.6,9.76,26.83,12.43,4.23,23.77-18.58,39.02-14.63,10.1,2.62,10.41,13.99,19.51,14.63,10.96.77,14.82-15.42,26.83-15.85,12.94-.47,20.05,17.91,24.39,15.85,4.91-2.33,5.33-30.32-12.2-39.02-9.92-4.92-16.05,8.66-35.37,8.54-16.56-.11-18.46-9.48-34.15-7.32-8.95,1.23-10.02,4.52-25.61,7.32-7.36,1.32-10.22,1.15-12.2,3.66Z"/>
    <path class="cls-5" d="m245.48,483.51c-4.95,6.29.27,23.6,9.76,26.83,12.43,4.23,23.77-18.58,39.02-14.63,10.1,2.62,10.41,13.99,19.51,14.63,10.96.77,14.82-15.42,26.83-15.85,12.94-.47,20.05,17.91,24.39,15.85,4.91-2.33,5.33-30.32-12.2-39.02-9.92-4.92-16.05,8.66-35.37,8.54-16.56-.11-18.46-9.48-34.15-7.32-8.95,1.23-10.02,4.52-25.61,7.32-7.36,1.32-10.22,1.15-12.2,3.66Z"/>
    <path class="cls-5" d="m275.97,464.12c-4.95,6.29.27,23.6,9.76,26.83,12.43,4.23,23.77-18.58,39.02-14.63,10.1,2.62,10.41,13.99,19.51,14.63,10.96.77,14.82-15.42,26.83-15.85,12.94-.47,20.05,17.91,24.39,15.85,4.91-2.33,5.33-30.32-12.2-39.02-9.92-4.92-16.05,8.66-35.37,8.54-16.56-.11-18.46-9.48-34.15-7.32-8.95,1.23-10.02,4.52-25.61,7.32-7.36,1.32-10.22,1.15-12.2,3.66Z"/>
    <path class="cls-5" d="m291.69,444.74c-4.95,6.29.27,23.6,9.76,26.83,12.43,4.23,23.77-18.58,39.02-14.63,10.1,2.62,10.41,13.99,19.51,14.63,10.96.77,14.82-15.42,26.83-15.85,12.94-.47,20.05,17.91,24.39,15.85,4.91-2.33,5.33-30.32-12.2-39.02-9.92-4.92-16.05,8.66-35.37,8.54-16.56-.11-18.46-9.48-34.15-7.32-8.95,1.23-10.02,4.52-25.61,7.32-7.36,1.32-10.22,1.15-12.2,3.66Z"/>
    <path class="cls-5" d="m308.03,428.46c-4.95,6.29.27,23.6,9.76,26.83,12.43,4.23,23.77-18.58,39.02-14.63,10.1,2.62,10.41,13.99,19.51,14.63,10.96.77,14.82-15.42,26.83-15.85,12.94-.47,20.05,17.91,24.39,15.85,4.91-2.33,5.33-30.32-12.2-39.02-9.92-4.92-16.05,8.66-35.37,8.54-16.56-.11-18.46-9.48-34.15-7.32-8.95,1.23-10.02,4.52-25.61,7.32-7.36,1.32-10.22,1.15-12.2,3.66Z"/>
    <path class="cls-5" d="m291.69,408.14c-4.95,6.29.27,23.6,9.76,26.83,12.43,4.23,23.77-18.58,39.02-14.63,10.1,2.62,10.41,13.99,19.51,14.63,10.96.77,14.82-15.42,26.83-15.85,12.94-.47,20.05,17.91,24.39,15.85,4.91-2.33,5.33-30.32-12.2-39.02-9.92-4.92-16.05,8.66-35.37,8.54-16.56-.11-18.46-9.48-34.15-7.32-8.95,1.23-10.02,4.52-25.61,7.32-7.36,1.32-10.22,1.15-12.2,3.66Z"/>
    <path class="cls-5" d="m318.58,382.61c-4.95,6.29.27,23.6,9.76,26.83,12.43,4.23,23.77-18.58,39.02-14.63,10.1,2.62,10.41,13.99,19.51,14.63,10.96.77,14.82-15.42,26.83-15.85,12.94-.47,20.05,17.91,24.39,15.85,4.91-2.33,5.33-30.32-12.2-39.02-9.92-4.92-16.05,8.66-35.37,8.54-16.56-.11-18.46-9.48-34.15-7.32-8.95,1.23-10.02,4.52-25.61,7.32-7.36,1.32-10.22,1.15-12.2,3.66Z"/>
    <path class="cls-5" d="m277.27,362.29c-4.95,6.29.27,23.6,9.76,26.83,12.43,4.23,23.77-18.58,39.02-14.63,10.1,2.62,10.41,13.99,19.51,14.63,10.96.77,14.82-15.42,26.83-15.85,12.94-.47,20.05,17.91,24.39,15.85,4.91-2.33,5.33-30.32-12.2-39.02-9.92-4.92-16.05,8.66-35.37,8.54-16.56-.11-18.46-9.48-34.15-7.32-8.95,1.23-10.02,4.52-25.61,7.32-7.36,1.32-10.22,1.15-12.2,3.66Z"/>
    <path class="cls-5" d="m297.05,341.98c-4.95,6.29.27,23.6,9.76,26.83,12.43,4.23,23.77-18.58,39.02-14.63,10.1,2.62,10.41,13.99,19.51,14.63,10.96.77,14.82-15.42,26.83-15.85,12.94-.47,20.05,17.91,24.39,15.85,4.91-2.33,5.33-30.32-12.2-39.02-9.92-4.92-16.05,8.66-35.37,8.54-16.56-.11-18.46-9.48-34.15-7.32-8.95,1.23-10.02,4.52-25.61,7.32-7.36,1.32-10.22,1.15-12.2,3.66Z"/>
    <path class="cls-5" d="m275.97,327.48c-4.95,6.29.27,23.6,9.76,26.83,12.43,4.23,23.77-18.58,39.02-14.63,10.1,2.62,10.41,13.99,19.51,14.63,10.96.77,14.82-15.42,26.83-15.85,12.94-.47,20.05,17.91,24.39,15.85,4.91-2.33,5.33-30.32-12.2-39.02-9.92-4.92-16.05,8.66-35.37,8.54-16.56-.11-18.46-9.48-34.15-7.32-8.95,1.23-10.02,4.52-25.61,7.32-7.36,1.32-10.22,1.15-12.2,3.66Z"/>
    <path class="cls-5" d="m308.03,305.63c-4.95,6.29.27,23.6,9.76,26.83,12.43,4.23,23.77-18.58,39.02-14.63,10.1,2.62,10.41,13.99,19.51,14.63,10.96.77,14.82-15.42,26.83-15.85,12.94-.47,20.05,17.91,24.39,15.85,4.91-2.33,5.33-30.32-12.2-39.02-9.92-4.92-16.05,8.66-35.37,8.54-16.56-.11-18.46-9.48-34.15-7.32-8.95,1.23-10.02,4.52-25.61,7.32-7.36,1.32-10.22,1.15-12.2,3.66Z"/>
    <path class="cls-5" d="m280.4,282.65c-4.95,6.29.27,23.6,9.76,26.83,12.43,4.23,23.77-18.58,39.02-14.63,10.1,2.62,10.41,13.99,19.51,14.63,10.96.77,14.82-15.42,26.83-15.85,12.94-.47,20.05,17.91,24.39,15.85,4.91-2.33,5.33-30.32-12.2-39.02-9.92-4.92-16.05,8.66-35.37,8.54-16.56-.11-18.46-9.48-34.15-7.32-8.95,1.23-10.02,4.52-25.61,7.32-7.36,1.32-10.22,1.15-12.2,3.66Z"/>
  </g>
  <g id="Layer_3" data-name="Layer 3">
    <path class="cls-1" d="m217.89,235.94c-4.45,10.21-8.72,24.77-4.88,40.24,4.28,17.22,14.87,20.5,20.73,32.93,13.82,29.29-24.41,54.71-31.71,103.66-6.17,41.4,17.09,50.69,23.17,104.88,2.96,26.34,2.2,66.4-19.51,118.29"/>
    <path class="cls-1" d="m454.33,228.75c-4.45,10.21-8.72,24.77-4.88,40.24,4.28,17.22,14.87,20.5,20.73,32.93,13.82,29.29-24.41,54.71-31.71,103.66-6.17,41.4,17.09,50.69,23.17,104.88,2.96,26.34,2.2,66.4-19.51,118.29"/>
    <path class="cls-1" d="m307.26,241.01c-7.83,11.06-17.88,29.04-15.85,50,2.71,28.12,24.67,35.85,30.49,63.41,5.75,27.27-12.85,33.38-23.17,76.83-14.61,61.52,14.86,82.2-6.1,123.17-15.46,30.22-37.54,30.79-41.46,54.88-4.51,27.7,20.11,55.02,42.68,74.39"/>
    <path class="cls-1" d="m201.18,220.74c-9.25,7.59-21.65,20.38-22.57,37.62-1.23,23.13,19.34,33.09,21.24,56.3,1.88,22.96-17.3,24.73-33.51,58.01-22.95,47.12,3.23,68.79-23.12,98.26-19.43,21.74-41.27,18.45-48.48,37.2-8.29,21.56,12.17,47.77,31.73,67.22"/>
    <path class="cls-1" d="m476.06,173.93c-3.11,11.55-5.75,29.17,3.53,43.73,12.46,19.53,34.98,15.66,50.03,33.43,14.89,17.58.32,30.18,6.5,66.67,8.75,51.67,42.65,54.07,38.37,93.37-3.15,28.98-22.83,39.02-17.79,58.47,5.8,22.36,37.7,31.77,64.92,36.21"/>
    <path class="cls-1" d="m415.46,222.91c-12.71,13.64-28.03,34.69-25.61,58.54,2.51,24.71,21.8,29.99,25.61,53.66,5.35,33.27-29.56,42.83-40.24,86.59-11.35,46.49,23.05,56.26,18.29,117.07-3.65,46.62-25.3,59.16-18.29,95.12,5.43,27.86,23.82,48.03,39.02,60.98"/>
  </g>
  <g id="Layer_6" data-name="Layer 6">
    <path class="cls-4" d="m154.88,212.2c5.35,9.3-6.15,19.74-1.22,26.83,7.82,11.26,39.74-4.86,51.1,9.25,3.72,4.62,2.32,8.66,7.32,12.2,6.96,4.91,17.4,1.75,23.17,0,12.68-3.84,13.2-8.89,19.51-8.54,10.86.61,11.13,15.65,24.39,20.73,12.62,4.84,27.42-3.02,37.8-8.54,14.74-7.83,15.57-13.66,24.39-15.85,14.38-3.58,19.3,12.52,42.68,19.51,5.45,1.63,28.36,8.48,43.9-2.44,13.33-9.36,10.4-24.18,20.73-26.83,11.39-2.92,18.04,14.26,35.37,13.41,12.59-.62,21.34-10.28,21.95-10.98,11.28-12.81,4.36-27.62,13.41-32.93,7.67-4.5,15.37,5.33,26.83,1.22,7.75-2.78,15.09-11.1,14.75-16.34-1.44-22.63-146.08-47.72-292.68-28.27-83.93,11.13-138.67,32.91-137.8,37.8.49,2.77,18.66-.21,24.39,9.76Z"/>
  </g>
  <g id="Layer_2" data-name="Layer 2">
    <path class="cls-5" d="m148.78,196.57c-2.04,1.35-20.86,13.99-18.29,21.95,2.36,7.33,20.12,2.22,32.93,14.63,10.47,10.14,5.63,20.35,14.63,25.61,12.21,7.13,24.95-9.43,41.46-3.66,13.85,4.84,10.68,18.51,24.39,25.61,17.47,9.05,29.37-9.63,60.98-8.54,27.83.96,31.66,15.89,53.66,12.2,21.9-3.68,21.79-19.09,43.9-23.17,25.84-4.77,35,14.61,54.88,7.32,19.18-7.04,18.17-27.84,37.8-31.71,14.39-2.83,21.79,6.98,30.49,1.22,9.05-6,4.38-18.83,14.63-31.71,8.26-10.38,20.45-8.75,20.73-13.41.42-7.12-25.7-14.03-28.05-14.63-86.61-22.42-311.56-29.7-384.15,18.29Z"/>
  </g>
  <g id="Layer_1" data-name="Layer 1">
    <path class="cls-3" d="m158.54,209.76c-12.99-25.12,33.33-80.9,79.27-109.76,9.12-5.73,86.1-52.35,173.17-21.95,8.2,2.86,52.31,18.92,86.59,62.2,17.05,21.53,30.58,38.61,26.83,56.1-8.36,39.03-96.16,49.01-158.54,56.1,0,0-104.59,11.88-196.34-32.93-2.7-1.32-8.01-4.02-10.98-9.76Z"/>
  </g>
</svg>